<?xml version="1.0" encoding="iso-8859-1"?>
<!-- Generator: Adobe Illustrator 17.1.0, SVG Export Plug-In . SVG Version: 6.00 Build 0)  -->
<!DOCTYPE svg PUBLIC "-//W3C//DTD SVG 1.1//EN" "http://www.w3.org/Graphics/SVG/1.1/DTD/svg11.dtd">
<svg version="1.1" id="Capa_1" xmlns="http://www.w3.org/2000/svg" xmlns:xlink="http://www.w3.org/1999/xlink" x="0px" y="0px"
	 viewBox="0 0 209.172 209.172" style="enable-background:new 0 0 209.172 209.172;" xml:space="preserve">
<path d="M198.855,132.631l-43.571-28.045l43.571-28.044c4.701-3.026,6.064-9.312,3.038-14.013l-18.726-29.094
	c-1.875-2.913-5.065-4.652-8.533-4.652c-1.945,0-3.84,0.558-5.48,1.614l-37.128,23.898V10.139C132.025,4.549,127.477,0,121.886,0
	h-34.6c-5.591,0-10.139,4.549-10.139,10.139v44.155L40.019,30.396c-1.64-1.056-3.536-1.614-5.48-1.614
	c-3.468,0-6.658,1.739-8.532,4.652L7.279,62.528c-3.026,4.701-1.663,10.987,3.038,14.013l43.571,28.044l-43.571,28.045
	c-4.701,3.026-6.064,9.312-3.038,14.013l18.726,29.093c1.875,2.913,5.065,4.653,8.533,4.653c1.945,0,3.84-0.558,5.48-1.614
	l37.128-23.898v44.154c0,5.591,4.549,10.139,10.139,10.139h34.6c5.591,0,10.139-4.549,10.139-10.139v-44.154l37.128,23.898
	c1.641,1.056,3.535,1.614,5.48,1.614c0,0,0.001,0,0.001,0c3.467,0,6.657-1.739,8.532-4.653l18.726-29.093
	C204.918,141.943,203.555,135.657,198.855,132.631z"/>
<g>
</g>
<g>
</g>
<g>
</g>
<g>
</g>
<g>
</g>
<g>
</g>
<g>
</g>
<g>
</g>
<g>
</g>
<g>
</g>
<g>
</g>
<g>
</g>
<g>
</g>
<g>
</g>
<g>
</g>
</svg>
