<?xml version="1.0" encoding="iso-8859-1"?>
<!-- Generator: Adobe Illustrator 19.0.0, SVG Export Plug-In . SVG Version: 6.00 Build 0)  -->
<svg version="1.1" id="Layer_1" xmlns="http://www.w3.org/2000/svg" xmlns:xlink="http://www.w3.org/1999/xlink" x="0px" y="0px"
	 viewBox="0 0 512 512" style="enable-background:new 0 0 512 512;" xml:space="preserve">
<g>
	<g>
		<g>
			<path d="M366.933,477.867H307.2V435.2c0-4.71-3.823-8.533-8.533-8.533s-8.533,3.823-8.533,8.533v42.667h-68.267V435.2
				c0-4.71-3.823-8.533-8.533-8.533c-4.71,0-8.533,3.823-8.533,8.533v42.667h-59.733c-4.71,0-8.533,3.823-8.533,8.533
				s3.823,8.533,8.533,8.533h221.867c4.71,0,8.533-3.823,8.533-8.533S371.644,477.867,366.933,477.867z"/>
			<path d="M256.256,358.4h-0.085c-4.71,0-8.491,3.823-8.491,8.533s3.866,8.533,8.576,8.533c4.719,0,8.533-3.823,8.533-8.533
				S260.975,358.4,256.256,358.4z"/>
			<path d="M412.1,134.033c1.664,1.664,3.849,2.5,6.033,2.5c2.185,0,4.369-0.836,6.033-2.5c3.336-3.337,3.336-8.73,0-12.066
				L407.1,104.9c-3.336-3.337-8.73-3.337-12.066,0c-3.337,3.337-3.337,8.73,0,12.066L412.1,134.033z"/>
			<path d="M412.1,185.233c1.664,1.664,3.849,2.5,6.033,2.5c2.185,0,4.369-0.836,6.033-2.5c3.336-3.337,3.336-8.73,0-12.066
				L355.9,104.9c-3.337-3.337-8.73-3.337-12.066,0c-3.337,3.337-3.337,8.73,0,12.066L412.1,185.233z"/>
			<path d="M469.333,17.067H42.667C20.736,17.067,0,37.803,0,59.733v307.2C0,388.864,20.736,409.6,42.667,409.6h426.667
				c21.931,0,42.667-20.736,42.667-42.667v-307.2C512,37.803,491.264,17.067,469.333,17.067z M494.933,366.933
				c0,12.442-13.158,25.6-25.6,25.6H42.667c-12.442,0-25.6-13.158-25.6-25.6v-307.2c0-12.442,13.158-25.6,25.6-25.6h426.667
				c12.442,0,25.6,13.158,25.6,25.6V366.933z"/>
			<path d="M469.333,51.2H42.667c-4.71,0-8.533,3.823-8.533,8.533V332.8c0,4.71,3.823,8.533,8.533,8.533h426.667
				c4.71,0,8.533-3.823,8.533-8.533V59.733C477.867,55.023,474.044,51.2,469.333,51.2z M460.8,324.267H51.2v-256h409.6V324.267z"/>
		</g>
	</g>
</g>
<g>
</g>
<g>
</g>
<g>
</g>
<g>
</g>
<g>
</g>
<g>
</g>
<g>
</g>
<g>
</g>
<g>
</g>
<g>
</g>
<g>
</g>
<g>
</g>
<g>
</g>
<g>
</g>
<g>
</g>
</svg>
