<?xml version="1.0" encoding="iso-8859-1"?>
<!-- Generator: Adobe Illustrator 19.0.0, SVG Export Plug-In . SVG Version: 6.00 Build 0)  -->
<svg version="1.1" id="Layer_1" xmlns="http://www.w3.org/2000/svg" xmlns:xlink="http://www.w3.org/1999/xlink" x="0px" y="0px"
	 viewBox="0 0 512 512" style="enable-background:new 0 0 512 512;" xml:space="preserve">

<path d="M315.858,222.33c-4.427,0-8.017,3.589-8.017,8.017v68.944h-59.568l3.624-2.416c3.684-2.455,4.68-7.433,2.223-11.116
	c-2.456-3.683-7.434-4.679-11.116-2.223l-25.653,17.102c-2.23,1.487-3.57,3.989-3.57,6.67c0,2.681,1.339,5.184,3.57,6.67
	l25.653,17.102c1.367,0.912,2.912,1.348,4.439,1.348c2.59,0,5.133-1.254,6.677-3.571c2.456-3.683,1.461-8.661-2.223-11.116
	l-3.624-2.416h67.585c4.427,0,8.017-3.589,8.017-8.017v-76.96C323.875,225.919,320.285,222.33,315.858,222.33z"/>
<g>
</g>
<g>
</g>
<g>
</g>
<g>
</g>
<g>
</g>
<g>
</g>
<g>
</g>
<g>
</g>
<g>
</g>
<g>
</g>
<g>
</g>
<g>
</g>
<g>
</g>
<g>
</g>
<g>
</g>
</svg>
