<?xml version="1.0" encoding="iso-8859-1"?>
<!-- Generator: Adobe Illustrator 19.0.0, SVG Export Plug-In . SVG Version: 6.00 Build 0)  -->
<svg version="1.1" id="Layer_1" xmlns="http://www.w3.org/2000/svg" xmlns:xlink="http://www.w3.org/1999/xlink" x="0px" y="0px"
	 viewBox="0 0 512 512" style="enable-background:new 0 0 512 512;" xml:space="preserve">
<g>
	<g>
		<g>
			<path d="M352,330.667v42.667c0,5.888,4.779,10.667,10.667,10.667h42.667c5.888,0,10.667-4.779,10.667-10.667v-42.667
				c0-5.888-4.779-10.667-10.667-10.667h-42.667C356.779,320,352,324.779,352,330.667z M373.333,341.333h21.333v21.333h-21.333
				V341.333z"/>
			<path d="M320,298.667h42.667c5.888,0,10.667-4.779,10.667-10.667v-42.667c0-5.888-4.779-10.667-10.667-10.667H320
				c-5.888,0-10.667,4.779-10.667,10.667V288C309.333,293.888,314.112,298.667,320,298.667z M330.667,256H352v21.333h-21.333V256z"
				/>
			<path d="M277.333,320c-5.888,0-10.667,4.779-10.667,10.667v42.667c0,5.888,4.779,10.667,10.667,10.667H320
				c5.888,0,10.667-4.779,10.667-10.667v-42.667c0-5.888-4.779-10.667-10.667-10.667H277.333z M309.333,362.667H288v-21.333h21.333
				V362.667z"/>
			<path d="M234.667,298.667h42.667c5.888,0,10.667-4.779,10.667-10.667v-42.667c0-5.888-4.779-10.667-10.667-10.667h-42.667
				c-5.888,0-10.667,4.779-10.667,10.667V288C224,293.888,228.779,298.667,234.667,298.667z M245.333,256h21.333v21.333h-21.333V256
				z"/>
			<path d="M362.667,405.333H149.333c-5.888,0-10.667,4.779-10.667,10.667v42.667c0,5.888,4.779,10.667,10.667,10.667h213.333
				c5.888,0,10.667-4.779,10.667-10.667V416C373.333,410.112,368.555,405.333,362.667,405.333z M352,448H160v-21.333h192V448z"/>
			<path d="M448,234.667h-42.667c-5.888,0-10.667,4.779-10.667,10.667V288c0,5.888,4.779,10.667,10.667,10.667H448
				c5.888,0,10.667-4.779,10.667-10.667v-42.667C458.667,239.445,453.888,234.667,448,234.667z M437.333,277.333H416V256h21.333
				V277.333z"/>
			<path d="M448,405.333h-42.667c-5.888,0-10.667,4.779-10.667,10.667v42.667c0,5.888,4.779,10.667,10.667,10.667H448
				c5.888,0,10.667-4.779,10.667-10.667V416C458.667,410.112,453.888,405.333,448,405.333z M437.333,448H416v-21.333h21.333V448z"/>
			<path d="M448,192H266.667V53.333c0-17.643,14.357-32,32-32c17.643,0,32,14.357,32,32V96c0,29.397,23.936,53.333,53.333,53.333
				S437.333,125.397,437.333,96V53.333c0-5.888-4.779-10.667-10.667-10.667S416,47.445,416,53.333V96c0,17.643-14.357,32-32,32
				c-17.643,0-32-14.357-32-32V53.333C352,23.936,328.064,0,298.667,0s-53.333,23.936-53.333,53.333V192H64
				c-29.397,0-53.333,23.936-53.333,53.333v213.333C10.667,488.064,34.603,512,64,512h384c29.397,0,53.333-23.936,53.333-53.333
				V245.333C501.333,215.936,477.397,192,448,192z M480,458.667c0,17.643-14.357,32-32,32H64c-17.643,0-32-14.357-32-32V245.333
				c0-17.643,14.357-32,32-32h384c17.643,0,32,14.357,32,32V458.667z"/>
			<path d="M106.667,405.333H64c-5.888,0-10.667,4.779-10.667,10.667v42.667c0,5.888,4.779,10.667,10.667,10.667h42.667
				c5.888,0,10.667-4.779,10.667-10.667V416C117.333,410.112,112.555,405.333,106.667,405.333z M96,448H74.667v-21.333H96V448z"/>
			<path d="M106.667,320C100.779,320,96,324.779,96,330.667v42.667c0,5.888,4.779,10.667,10.667,10.667h42.667
				c5.888,0,10.667-4.779,10.667-10.667v-42.667c0-5.888-4.779-10.667-10.667-10.667H106.667z M138.667,362.667h-21.333v-21.333
				h21.333V362.667z"/>
			<path d="M149.333,298.667H192c5.888,0,10.667-4.779,10.667-10.667v-42.667c0-5.888-4.779-10.667-10.667-10.667h-42.667
				c-5.888,0-10.667,4.779-10.667,10.667V288C138.667,293.888,143.445,298.667,149.333,298.667z M160,256h21.333v21.333H160V256z"/>
			<path d="M64,298.667h42.667c5.888,0,10.667-4.779,10.667-10.667v-42.667c0-5.888-4.779-10.667-10.667-10.667H64
				c-5.888,0-10.667,4.779-10.667,10.667V288C53.333,293.888,58.112,298.667,64,298.667z M74.667,256H96v21.333H74.667V256z"/>
			<path d="M192,320c-5.888,0-10.667,4.779-10.667,10.667v42.667c0,5.888,4.779,10.667,10.667,10.667h42.667
				c5.888,0,10.667-4.779,10.667-10.667v-42.667c0-5.888-4.779-10.667-10.667-10.667H192z M224,362.667h-21.333v-21.333H224V362.667
				z"/>
		</g>
	</g>
</g>
<g>
</g>
<g>
</g>
<g>
</g>
<g>
</g>
<g>
</g>
<g>
</g>
<g>
</g>
<g>
</g>
<g>
</g>
<g>
</g>
<g>
</g>
<g>
</g>
<g>
</g>
<g>
</g>
<g>
</g>
</svg>
