<?xml version="1.0" encoding="iso-8859-1"?>
<!-- Generator: Adobe Illustrator 19.0.0, SVG Export Plug-In . SVG Version: 6.00 Build 0)  -->
<svg version="1.1" id="Layer_1" xmlns="http://www.w3.org/2000/svg" xmlns:xlink="http://www.w3.org/1999/xlink" x="0px" y="0px"
	 viewBox="0 0 490.667 490.667" style="enable-background:new 0 0 490.667 490.667;" xml:space="preserve">
<g>
	<g>
		<g>
			<path d="M174.549,64.909c46.187-15.403,95.403-15.403,141.589,0c1.131,0.384,2.261,0.555,3.371,0.555
				c4.459,0,8.619-2.816,10.112-7.296c1.856-5.589-1.152-11.627-6.741-13.483c-50.56-16.875-104.512-16.875-155.093,0
				c-5.589,1.856-8.597,7.893-6.741,13.483C162.923,63.757,168.917,66.765,174.549,64.909z"/>
			<path d="M309.397,85.133c-41.792-13.931-86.336-13.931-128.128,0c-5.589,1.856-8.597,7.893-6.741,13.483
				c1.856,5.568,7.851,8.64,13.483,6.741c37.419-12.459,77.205-12.459,114.624,0c1.131,0.384,2.261,0.555,3.371,0.555
				c4.459,0,8.619-2.816,10.112-7.296C317.995,93.027,314.987,86.989,309.397,85.133z"/>
			<path d="M437.333,138.637h-384C23.936,138.637,0,162.573,0,191.971v213.333c0,29.397,23.936,53.333,53.333,53.333h384
				c29.397,0,53.333-23.936,53.333-53.333V191.971C490.667,162.573,466.731,138.637,437.333,138.637z M298.667,191.971
				c0-5.888,4.779-10.667,10.667-10.667H352c5.888,0,10.667,4.779,10.667,10.667v42.667c0,5.888-4.779,10.667-10.667,10.667h-42.667
				c-5.888,0-10.667-4.779-10.667-10.667V191.971z M394.667,266.637c5.888,0,10.667,4.779,10.667,10.667v42.667
				c0,5.888-4.779,10.667-10.667,10.667H352c-5.888,0-10.667-4.779-10.667-10.667v-42.667c0-5.888,4.779-10.667,10.667-10.667
				H394.667z M320,277.304v42.667c0,5.888-4.779,10.667-10.667,10.667h-42.667c-5.888,0-10.667-4.779-10.667-10.667v-42.667
				c0-5.888,4.779-10.667,10.667-10.667h42.667C315.221,266.637,320,271.416,320,277.304z M213.333,191.971
				c0-5.888,4.779-10.667,10.667-10.667h42.667c5.888,0,10.667,4.779,10.667,10.667v42.667c0,5.888-4.779,10.667-10.667,10.667H224
				c-5.888,0-10.667-4.779-10.667-10.667V191.971z M234.667,277.304v42.667c0,5.888-4.779,10.667-10.667,10.667h-42.667
				c-5.888,0-10.667-4.779-10.667-10.667v-42.667c0-5.888,4.779-10.667,10.667-10.667H224
				C229.888,266.637,234.667,271.416,234.667,277.304z M128,191.971c0-5.888,4.779-10.667,10.667-10.667h42.667
				c5.888,0,10.667,4.779,10.667,10.667v42.667c0,5.888-4.779,10.667-10.667,10.667h-42.667c-5.888,0-10.667-4.779-10.667-10.667
				V191.971z M149.333,277.304v42.667c0,5.888-4.779,10.667-10.667,10.667H96c-5.888,0-10.667-4.779-10.667-10.667v-42.667
				c0-5.888,4.779-10.667,10.667-10.667h42.667C144.555,266.637,149.333,271.416,149.333,277.304z M42.667,191.971
				c0-5.888,4.779-10.667,10.667-10.667H96c5.888,0,10.667,4.779,10.667,10.667v42.667c0,5.888-4.779,10.667-10.667,10.667H53.333
				c-5.888,0-10.667-4.779-10.667-10.667V191.971z M106.667,405.304c0,5.888-4.779,10.667-10.667,10.667H53.333
				c-5.888,0-10.667-4.779-10.667-10.667v-42.667c0-5.888,4.779-10.667,10.667-10.667H96c5.888,0,10.667,4.779,10.667,10.667
				V405.304z M362.667,405.304c0,5.888-4.779,10.667-10.667,10.667H138.667c-5.888,0-10.667-4.779-10.667-10.667v-42.667
				c0-5.888,4.779-10.667,10.667-10.667H352c5.888,0,10.667,4.779,10.667,10.667V405.304z M448,405.304
				c0,5.888-4.779,10.667-10.667,10.667h-42.667c-5.888,0-10.667-4.779-10.667-10.667v-42.667c0-5.888,4.779-10.667,10.667-10.667
				h42.667c5.888,0,10.667,4.779,10.667,10.667V405.304z M448,234.637c0,5.888-4.779,10.667-10.667,10.667h-42.667
				c-5.888,0-10.667-4.779-10.667-10.667v-42.667c0-5.888,4.779-10.667,10.667-10.667h42.667c5.888,0,10.667,4.779,10.667,10.667
				V234.637z"/>
		</g>
	</g>
</g>
<g>
</g>
<g>
</g>
<g>
</g>
<g>
</g>
<g>
</g>
<g>
</g>
<g>
</g>
<g>
</g>
<g>
</g>
<g>
</g>
<g>
</g>
<g>
</g>
<g>
</g>
<g>
</g>
<g>
</g>
</svg>
