<?xml version="1.0" encoding="iso-8859-1"?>
<!-- Generator: Adobe Illustrator 19.0.0, SVG Export Plug-In . SVG Version: 6.00 Build 0)  -->
<svg version="1.1" id="Layer_1" xmlns="http://www.w3.org/2000/svg" xmlns:xlink="http://www.w3.org/1999/xlink" x="0px" y="0px"
	 viewBox="0 0 511.995 511.995" style="enable-background:new 0 0 511.995 511.995;" xml:space="preserve">
<g>
	<g>
		<path d="M263.535,269.784c-4.171-4.162-10.921-4.162-15.093,0.002c-2.078,2.086-3.125,4.805-3.125,7.539
			c0-13.109-3.359-25.703-9.656-36.797c1.375,2.102,3.5,3.734,6.141,4.438c5.688,1.523,11.531-1.852,13.062-7.539
			c1.516-5.695-1.859-11.539-7.547-13.07c-5.688-1.523-11.547,1.859-13.062,7.546c-0.719,2.664-0.344,5.359,0.828,7.633
			c-3.188-5.406-7.078-10.445-11.625-15c-4.562-4.562-9.609-8.453-15.016-11.633c2.281,1.172,4.969,1.547,7.641,0.828
			c5.688-1.523,9.062-7.375,7.547-13.062c-1.531-5.688-7.375-9.07-13.062-7.539c-5.703,1.523-9.078,7.375-7.547,13.062
			c0.703,2.625,2.344,4.758,4.453,6.141c-11.109-6.312-23.703-9.672-36.812-9.672c2.734,0,5.453-1.039,7.531-3.125
			c4.172-4.164,4.172-10.914,0-15.078c-4.156-4.172-10.906-4.172-15.078,0c-4.172,4.164-4.172,10.914,0,15.078
			c2.078,2.086,4.812,3.125,7.531,3.125c-13.109,0-25.703,3.359-36.797,9.672c2.109-1.391,3.734-3.516,4.438-6.141
			c1.531-5.695-1.844-11.539-7.531-13.062c-5.688-1.531-11.547,1.852-13.078,7.539c-1.516,5.688,1.859,11.539,7.547,13.062
			c2.672,0.719,5.359,0.344,7.641-0.828c-5.406,3.188-10.453,7.078-15,11.633c-4.562,4.555-8.453,9.601-11.64,15.007
			c1.172-2.273,1.547-4.977,0.828-7.641c-1.516-5.687-7.375-9.07-13.062-7.539c-5.688,1.523-9.062,7.367-7.531,13.062
			c1.516,5.688,7.375,9.062,13.062,7.539c2.625-0.703,4.75-2.336,6.141-4.453c-6.312,11.102-9.672,23.695-9.672,36.812
			c0-2.734-1.031-5.453-3.125-7.539c-4.156-4.164-10.922-4.164-15.094,0c-4.156,4.164-4.156,10.93,0,15.086
			c4.172,4.156,10.938,4.156,15.094,0c2.094-2.078,3.125-4.812,3.125-7.531c0,13.109,3.359,25.703,9.656,36.797
			c-1.375-2.109-3.5-3.734-6.125-4.453c-5.688-1.516-11.547,1.859-13.062,7.562c-1.531,5.688,1.844,11.531,7.531,13.062
			c5.688,1.516,11.547-1.859,13.062-7.562c0.719-2.656,0.344-5.344-0.828-7.625c3.188,5.406,7.078,10.438,11.64,15
			c4.547,4.562,9.594,8.438,15,11.625c-2.281-1.156-4.969-1.531-7.641-0.812c-5.688,1.516-9.062,7.375-7.547,13.062
			c1.531,5.688,7.391,9.062,13.078,7.531c5.688-1.516,9.062-7.375,7.531-13.062c-0.703-2.625-2.328-4.75-4.438-6.125
			c11.109,6.297,23.688,9.656,36.797,9.656c-2.719,0-5.453,1.031-7.531,3.125c-4.172,4.156-4.172,10.906,0,15.094
			c4.172,4.156,10.921,4.156,15.078,0c4.172-4.188,4.172-10.938,0-15.094c-2.078-2.094-4.797-3.125-7.531-3.125
			c13.109,0,25.703-3.359,36.796-9.656c-2.109,1.375-3.734,3.5-4.438,6.125c-1.531,5.688,1.844,11.531,7.547,13.062
			c5.688,1.531,11.531-1.844,13.062-7.531c1.516-5.688-1.859-11.547-7.547-13.062c-2.672-0.719-5.359-0.344-7.641,0.812
			c5.406-3.172,10.453-7.062,15.016-11.625c4.547-4.547,8.437-9.594,11.625-15c-1.172,2.281-1.547,4.969-0.828,7.625
			c1.516,5.703,7.375,9.078,13.062,7.562c5.688-1.531,9.062-7.375,7.547-13.062c-1.531-5.703-7.375-9.078-13.062-7.562
			c-2.641,0.719-4.766,2.344-6.141,4.453c6.297-11.109,9.656-23.703,9.656-36.797c0,2.719,1.047,5.453,3.125,7.531
			c4.172,4.156,10.922,4.156,15.094,0C267.691,280.714,267.691,273.948,263.535,269.784z M208.365,315.044
			c-10.062,10.078-23.469,15.609-37.703,15.609c-14.25,0-27.641-5.531-37.719-15.609s-15.609-23.469-15.609-37.703
			c0-14.258,5.531-27.648,15.609-37.727c10.078-10.07,23.469-15.617,37.719-15.617c14.234,0,27.64,5.547,37.703,15.625
			c10.078,10.07,15.625,23.461,15.625,37.719C223.99,291.575,218.443,304.966,208.365,315.044z"/>
	</g>
</g>
<g>
	<g>
		<path d="M276.957,199.904c-1.531-5.687-7.374-9.071-13.062-7.539c-5.688,1.523-9.062,7.375-7.547,13.062
			c1.531,5.688,7.375,9.062,13.062,7.539C275.113,211.443,278.488,205.591,276.957,199.904z"/>
	</g>
</g>
<g>
	<g>
		<path d="M84.959,199.904c-1.531-5.688-7.375-9.07-13.062-7.539c-5.688,1.523-9.062,7.375-7.531,13.062
			c1.516,5.688,7.359,9.062,13.062,7.539C83.117,211.443,86.492,205.591,84.959,199.904z"/>
	</g>
</g>
<g>
	<g>
		<path d="M63.991,63.998v106.664h213.326V63.998H63.991z M255.989,149.334H85.334v-64h170.655V149.334z"/>
	</g>
</g>
<g>
	<g>
		<path d="M200.817,247.161c-4.155-4.164-10.905-4.164-15.077,0l-45.25,45.258c-4.172,4.172-4.172,10.922,0,15.078
			c2.078,2.094,4.812,3.125,7.547,3.125c2.719,0,5.453-1.031,7.531-3.125l45.265-45.25
			C204.989,258.083,204.989,251.325,200.817,247.161z"/>
	</g>
</g>
<g>
	<g>
		<path d="M479.987,138.662h-10.672v-64c0-5.891-4.766-10.664-10.655-10.664c-5.891,0-10.672,4.773-10.672,10.664v64h-10.672
			c-5.891,0-10.656,4.781-10.656,10.672v224.007c0,5.875,4.766,10.656,10.656,10.656h10.672v106.654H234.645l0.016-85.312h21.328
			v53.312c0,2.844,1.125,5.547,3.125,7.562c2,2,4.703,3.125,7.531,3.125h106.671c5.891,0,10.672-4.781,10.672-10.688v-74.653h10.672
			c5.891,0,10.656-4.781,10.656-10.656V149.334c0-5.891-4.766-10.672-10.656-10.672h-10.672v-64c0-5.891-4.781-10.664-10.672-10.664
			s-10.656,4.773-10.656,10.664v64h-10.672c-5.891,0-10.672,4.781-10.672,10.672v224.007c0,5.875,4.781,10.656,10.672,10.656h10.672
			v63.998h-85.343v-43.75c24.312-4.936,42.671-26.498,42.671-52.248V53.335C319.988,23.921,296.066,0,266.661,0H74.648
			C45.241,0,21.335,23.921,21.335,53.335v298.662c0,29.406,23.906,53.342,53.312,53.342h138.671v95.984
			c0,2.828,1.125,5.547,3.125,7.547s4.719,3.125,7.547,3.125h234.67c5.89,0,10.671-4.781,10.671-10.656V383.997h10.656
			c5.891,0,10.672-4.781,10.672-10.656V149.334C490.659,143.443,485.879,138.662,479.987,138.662z M362.66,159.998h21.328v10.664
			H362.66V159.998z M362.66,191.997h21.328v170.656H362.66V191.997z M74.648,383.997c-17.625,0-32-14.344-32-32V53.335
			c0-17.648,14.375-32,32-32h21.344c0,5.891,4.781,10.664,10.656,10.664h128.014c5.891,0,10.656-4.773,10.656-10.664h21.344
			c17.641,0,31.999,14.352,31.999,32v298.662c0,17.656-14.358,32-31.999,32H74.648z M469.315,362.653h-21.327V191.997h21.327
			V362.653z M469.315,170.662h-21.327v-10.664h21.327V170.662z"/>
	</g>
</g>
<g>
</g>
<g>
</g>
<g>
</g>
<g>
</g>
<g>
</g>
<g>
</g>
<g>
</g>
<g>
</g>
<g>
</g>
<g>
</g>
<g>
</g>
<g>
</g>
<g>
</g>
<g>
</g>
<g>
</g>
</svg>
