<?xml version="1.0" encoding="iso-8859-1"?>
<!-- Generator: Adobe Illustrator 16.0.0, SVG Export Plug-In . SVG Version: 6.00 Build 0)  -->
<!DOCTYPE svg PUBLIC "-//W3C//DTD SVG 1.1//EN" "http://www.w3.org/Graphics/SVG/1.1/DTD/svg11.dtd">
<svg version="1.1" id="Capa_1" xmlns="http://www.w3.org/2000/svg" xmlns:xlink="http://www.w3.org/1999/xlink" x="0px" y="0px"
	 width="45.826px" height="45.826px" viewBox="0 0 45.826 45.826" style="enable-background:new 0 0 45.826 45.826;"
	 xml:space="preserve">
<g>
	<path d="M45.826,11.712c0-2.939-2.383-5.323-5.323-5.323H5.323C2.383,6.389,0,8.771,0,11.712v22.403
		c0,2.938,2.383,5.322,5.323,5.322h35.18c2.94,0,5.323-2.383,5.323-5.322V11.712z M41.803,34.074c0,0.729-0.555,1.34-1.283,1.34
		H5.303c-0.728,0-1.281-0.611-1.281-1.34v-8.677h5.753l3.752,6.201c0.364,0.603,1.015,0.964,1.712,0.964
		c0.042,0,0.083-0.003,0.125-0.005c0.743-0.046,1.399-0.502,1.703-1.183l4.624-10.372l3.61,3.772
		c0.379,0.396,0.899,0.622,1.445,0.622h7.171c1.104,0,2.001-0.905,2.001-2.011c0-1.105-0.896-2.011-2.001-2.011H27.6l-5.08-5.298
		c-0.461-0.481-1.132-0.702-1.789-0.584c-0.656,0.114-1.213,0.549-1.484,1.158l-4.278,9.594l-2.355-3.899
		c-0.363-0.6-1.012-0.971-1.712-0.971h-6.88V11.7c0-0.728,0.553-1.288,1.281-1.288H40.52c0.729,0,1.283,0.56,1.283,1.288V34.074z"/>
</g>
<g>
</g>
<g>
</g>
<g>
</g>
<g>
</g>
<g>
</g>
<g>
</g>
<g>
</g>
<g>
</g>
<g>
</g>
<g>
</g>
<g>
</g>
<g>
</g>
<g>
</g>
<g>
</g>
<g>
</g>
</svg>
