<?xml version="1.0" encoding="iso-8859-1"?>
<!-- Generator: Adobe Illustrator 19.0.0, SVG Export Plug-In . SVG Version: 6.00 Build 0)  -->
<svg version="1.1" id="Capa_1" xmlns="http://www.w3.org/2000/svg" xmlns:xlink="http://www.w3.org/1999/xlink" x="0px" y="0px"
	 viewBox="0 0 512 512" style="enable-background:new 0 0 512 512;" xml:space="preserve">
<g>
	<g>
		<path d="M401,411V0H31v452c0,33.084,26.916,60,60,60h330c33.084,0,60-26.916,60-60v-41H401z M121,452c0,16.542-13.458,30-30,30
			s-30-13.458-30-30V30h310v381H121V452z M451,452c0,16.542-13.458,30-30,30H142.928c5.123-8.833,8.072-19.075,8.072-30v-11h300V452
			z"/>
	</g>
</g>
<g>
	<g>
		<circle cx="131" cy="110" r="20"/>
	</g>
</g>
<g>
	<g>
		<rect x="171" y="95" width="140" height="30"/>
	</g>
</g>
<g>
	<g>
		<circle cx="131" cy="180" r="20"/>
	</g>
</g>
<g>
	<g>
		<rect x="171" y="165" width="140" height="30"/>
	</g>
</g>
<g>
	<g>
		<circle cx="131" cy="250" r="20"/>
	</g>
</g>
<g>
	<g>
		<rect x="171" y="235" width="140" height="30"/>
	</g>
</g>
<g>
	<g>
		<circle cx="131" cy="320" r="20"/>
	</g>
</g>
<g>
	<g>
		<rect x="171" y="305" width="140" height="30"/>
	</g>
</g>
<g>
</g>
<g>
</g>
<g>
</g>
<g>
</g>
<g>
</g>
<g>
</g>
<g>
</g>
<g>
</g>
<g>
</g>
<g>
</g>
<g>
</g>
<g>
</g>
<g>
</g>
<g>
</g>
<g>
</g>
</svg>
