<?xml version="1.0" encoding="iso-8859-1"?>
<!-- Generator: Adobe Illustrator 16.0.0, SVG Export Plug-In . SVG Version: 6.00 Build 0)  -->
<!DOCTYPE svg PUBLIC "-//W3C//DTD SVG 1.1//EN" "http://www.w3.org/Graphics/SVG/1.1/DTD/svg11.dtd">
<svg version="1.1" id="Capa_1" xmlns="http://www.w3.org/2000/svg" xmlns:xlink="http://www.w3.org/1999/xlink" x="0px" y="0px"
	 width="96.639px" height="96.639px" viewBox="0 0 96.639 96.639" style="enable-background:new 0 0 96.639 96.639;"
	 xml:space="preserve">
<g>
	<g>
		<path d="M95.263,12.29V2.277C95.263,1.019,94.245,0,92.987,0H36.921C25.539,0,17.05,2.442,10.969,7.47
			c-6.364,5.265-9.594,12.724-9.594,22.167c0,10.367,3.124,18.054,9.547,23.499c6.399,5.423,15.696,8.175,27.63,8.175h10.38v33.051
			c0,1.258,1.02,2.277,2.278,2.277h7.096c1.257,0,2.276-1.02,2.276-2.277V14.566h9.146v79.795c0,1.258,1.021,2.276,2.277,2.276
			h6.873c1.257,0,2.277-1.021,2.277-2.276V14.566h11.83C94.247,14.566,95.263,13.547,95.263,12.29z"/>
	</g>
</g>
<g>
</g>
<g>
</g>
<g>
</g>
<g>
</g>
<g>
</g>
<g>
</g>
<g>
</g>
<g>
</g>
<g>
</g>
<g>
</g>
<g>
</g>
<g>
</g>
<g>
</g>
<g>
</g>
<g>
</g>
</svg>
