<?xml version="1.0" standalone="no"?>
<!DOCTYPE svg PUBLIC "-//W3C//DTD SVG 20010904//EN"
 "http://www.w3.org/TR/2001/REC-SVG-20010904/DTD/svg10.dtd">
<svg version="1.0" xmlns="http://www.w3.org/2000/svg"
 width="500.000000pt" height="287.000000pt" viewBox="0 0 500.000000 287.000000"
 preserveAspectRatio="xMidYMid meet">
<metadata>
Created by potrace 1.14, written by Peter Selinger 2001-2017
</metadata>
<g transform="translate(0.000000,287.000000) scale(0.100000,-0.100000)"
fill="#000000" stroke="none">
<path d="M3044 2751 c-2 -2 -4 -17 -4 -31 0 -27 1 -28 82 -35 98 -8 132 -21
174 -66 24 -26 487 -699 577 -839 17 -26 16 -27 -243 -405 -143 -209 -280
-401 -304 -426 -58 -60 -147 -104 -241 -120 l-75 -12 0 -35 0 -34 86 7 85 7
-6 -39 c-47 -276 -123 -418 -261 -482 -105 -50 -157 -55 -506 -56 -301 0 -329
1 -345 18 -17 16 -18 51 -21 468 l-3 451 208 -4 c170 -3 215 -7 248 -21 87
-39 116 -93 123 -229 5 -95 5 -98 28 -98 l24 0 0 386 0 385 -22 -3 c-22 -3
-23 -9 -29 -98 -6 -106 -24 -156 -71 -195 -47 -40 -92 -47 -306 -52 l-203 -5
3 407 c3 393 4 407 23 421 17 13 72 15 360 12 318 -4 344 -5 406 -26 161 -53
234 -162 268 -397 22 -153 20 -145 46 -145 14 0 25 3 25 8 0 4 -16 150 -35
325 -19 175 -35 320 -35 323 0 2 -288 4 -639 4 l-640 0 -5 43 c-3 23 -13 141
-21 262 -8 121 -18 244 -21 273 l-5 52 -850 0 -849 0 0 -22 c0 -13 -11 -156
-24 -318 -13 -162 -20 -299 -16 -303 4 -5 16 -7 26 -5 16 3 21 21 32 128 25
244 67 340 172 392 74 37 135 47 332 55 180 7 221 0 232 -40 10 -39 7 -1724
-4 -1752 -15 -40 -65 -55 -205 -62 l-125 -6 0 -31 0 -31 430 0 430 0 0 31 0
31 -120 6 c-135 8 -185 23 -200 62 -6 17 -10 341 -10 886 l0 860 25 24 c22 23
31 25 122 25 137 0 309 -16 368 -34 68 -21 132 -77 161 -142 27 -61 52 -183
61 -300 l6 -84 -77 0 -76 0 0 -45 0 -45 85 0 c96 0 139 -15 149 -52 3 -13 6
-408 6 -879 0 -808 -1 -858 -18 -879 -20 -25 -78 -39 -164 -40 l-58 0 0 -35 0
-35 764 0 764 0 6 27 c3 16 24 158 46 318 23 159 44 294 47 299 4 5 68 6 160
2 l153 -6 0 35 c0 29 -4 36 -27 41 -64 16 -99 64 -91 126 2 23 79 143 248 390
134 196 248 355 251 352 21 -12 529 -775 529 -793 0 -31 -33 -59 -85 -72 -41
-10 -45 -14 -45 -43 l0 -31 315 0 315 0 0 33 c0 31 -1 32 -44 32 -70 0 -147
18 -178 43 -29 22 -691 983 -691 1003 0 10 373 554 450 656 24 32 63 71 87 88
48 32 144 66 219 75 45 6 47 8 47 38 l0 32 -270 0 -271 0 3 -34 c3 -28 8 -35
37 -45 46 -15 74 -55 74 -105 0 -35 -22 -71 -205 -337 -113 -164 -209 -299
-214 -301 -5 -1 -49 57 -99 129 -278 408 -365 539 -365 548 0 21 48 59 89 70
37 10 41 14 41 43 l0 32 -311 0 c-171 0 -313 -2 -315 -4z"/>
</g>
</svg>
