<?xml version="1.0" encoding="iso-8859-1"?>
<!-- Generator: Adobe Illustrator 18.0.0, SVG Export Plug-In . SVG Version: 6.00 Build 0)  -->
<!DOCTYPE svg PUBLIC "-//W3C//DTD SVG 1.1//EN" "http://www.w3.org/Graphics/SVG/1.1/DTD/svg11.dtd">
<svg version="1.1" id="Capa_1" xmlns="http://www.w3.org/2000/svg" xmlns:xlink="http://www.w3.org/1999/xlink" x="0px" y="0px"
	 viewBox="0 0 319.472 319.472" style="enable-background:new 0 0 319.472 319.472;" xml:space="preserve">
<g>
	<path d="M312.486,67.188l-0.276-0.718l-59.456,59.456l44.125,44.126l0.348-0.444C319.847,140.741,325.694,101.497,312.486,67.188z"
		/>
	<path d="M182.321,85.324c0-4.732,1.842-9.182,5.189-12.527l65.514-65.514l-0.718-0.276C240.229,2.357,227.516,0,214.521,0
		c-28.035,0-54.391,10.917-74.214,30.739c-29.718,29.719-37.85,72.969-24.408,110.1L13.018,243.72
		c-8.381,8.381-12.997,19.525-12.997,31.378c0,11.853,4.616,22.996,12.997,31.377c8.381,8.381,19.525,12.996,31.378,12.997
		c0,0,0,0,0,0c11.852,0,22.996-4.616,31.376-12.997l102.832-102.832c11.358,4.126,23.47,6.282,35.914,6.283c0.003,0,0.002,0,0.005,0
		c23.021,0,44.86-7.3,63.149-21.106l0.458-0.347L187.509,97.85C184.164,94.504,182.321,90.056,182.321,85.324z M53.648,287.141
		c-5.881,5.881-15.416,5.881-21.297,0c-5.88-5.881-5.88-15.416,0.001-21.295c5.88-5.881,15.415-5.881,21.295,0
		C59.528,271.726,59.528,281.261,53.648,287.141z M148.585,118.567c-0.377-3.47,2.13-6.585,5.6-6.96l24.7-2.686
		c3.468-0.378,6.585,2.129,6.96,5.597c0.377,3.47-2.13,6.587-5.595,6.964l-24.702,2.684
		C152.079,124.543,148.962,122.037,148.585,118.567z M221.58,150.254c0.377,3.469-2.131,6.585-5.6,6.959l-24.699,2.686
		c-3.469,0.378-6.586-2.127-6.961-5.596c-0.377-3.47,2.129-6.586,5.596-6.963l24.701-2.684
		C218.086,144.277,221.204,146.785,221.58,150.254z M203.712,132.385c0.377,3.471-2.129,6.588-5.597,6.963l-24.701,2.684
		c-3.469,0.377-6.585-2.127-6.961-5.596c-0.377-3.469,2.129-6.586,5.597-6.963l24.701-2.684
		C200.219,126.412,203.336,128.917,203.712,132.385z"/>
</g>
<g>
</g>
<g>
</g>
<g>
</g>
<g>
</g>
<g>
</g>
<g>
</g>
<g>
</g>
<g>
</g>
<g>
</g>
<g>
</g>
<g>
</g>
<g>
</g>
<g>
</g>
<g>
</g>
<g>
</g>
</svg>
