<svg fill="#000000" xmlns="http://www.w3.org/2000/svg" viewBox="0 0 50 50" width="250px" height="250px"><path d="M 25 2 C 12.308594 2 2 12.308594 2 25 C 2 37.691406 12.308594 48 25 48 C 37.691406 48 48 37.691406 48 25 C 48 12.308594 37.691406 2 25 2 Z M 25 4 C 36.609375 4 46 13.390625 46 25 C 46 36.609375 36.609375 46 25 46 C 13.390625 46 4 36.609375 4 25 C 4 13.390625 13.390625 4 25 4 Z M 23.640625 10.449219 C 23.566406 10.449219 23.492188 10.460938 23.421875 10.476563 C 19.46875 11.417969 15.394531 14.1875 12.332031 17.609375 C 9.273438 21.035156 7.164063 25.140625 7.632813 28.980469 C 7.6875 29.40625 8.007813 29.753906 8.433594 29.839844 C 8.855469 29.921875 9.285156 29.726563 9.5 29.347656 C 11.453125 25.894531 13.070313 23.984375 14.222656 22.96875 C 15.375 21.949219 16.117188 21.859375 16.058594 21.859375 C 16.132813 21.859375 16.152344 21.863281 16.171875 21.863281 C 16.148438 21.839844 16.1875 21.859375 16.1875 22.109375 L 16.1875 32.59375 C 16.1875 32.714844 16.1875 32.683594 16.191406 32.671875 C 16.0625 32.703125 15.640625 32.6875 15.238281 32.625 C 14.847656 32.570313 14.457031 32.746094 14.246094 33.082031 C 14.035156 33.417969 14.039063 33.84375 14.261719 34.171875 C 17.746094 39.367188 25.367188 39.546875 25.367188 39.546875 C 25.660156 39.5625 25.945313 39.445313 26.144531 39.226563 L 28.726563 36.421875 L 31.109375 38.460938 C 31.449219 38.75 31.933594 38.78125 32.304688 38.539063 C 34.808594 36.917969 36.84375 34.773438 38.273438 32.917969 C 38.988281 31.992188 39.550781 31.136719 39.949219 30.441406 C 40.144531 30.09375 40.300781 29.785156 40.417969 29.511719 C 40.535156 29.234375 40.640625 29.058594 40.640625 28.628906 C 40.644531 28.214844 40.386719 27.84375 40.003906 27.695313 C 39.617188 27.546875 39.179688 27.648438 38.902344 27.957031 C 37.800781 29.167969 36.808594 29.859375 36.0625 30.246094 C 35.316406 30.628906 34.703125 30.691406 34.824219 30.691406 C 34.734375 30.691406 34.707031 30.679688 34.632813 30.671875 L 34.632813 18.570313 C 34.632813 18.761719 34.710938 18.328125 34.972656 17.878906 C 35.238281 17.429688 35.621094 16.867188 36.042969 16.296875 C 36.878906 15.160156 37.839844 13.996094 38.328125 13.371094 C 38.59375 13.035156 38.613281 12.566406 38.378906 12.207031 C 38.144531 11.847656 37.707031 11.679688 37.292969 11.785156 C 34.078125 12.628906 31.824219 13.859375 30.363281 14.902344 C 29.332031 15.636719 29.121094 15.953125 28.824219 16.28125 C 28.746094 16.246094 28.761719 16.238281 28.671875 16.207031 C 28.132813 16.015625 27.347656 15.835938 26.316406 15.835938 C 25.898438 15.835938 25.527344 16.097656 25.378906 16.488281 C 25.234375 16.882813 25.351563 17.324219 25.667969 17.59375 C 26.253906 18.097656 26.964844 18.996094 26.964844 19.730469 L 26.964844 30.574219 C 26.769531 30.703125 26.675781 30.78125 26.304688 30.988281 C 25.703125 31.324219 24.914063 31.597656 24.730469 31.597656 C 24.277344 31.597656 23.953125 31.488281 23.816406 31.398438 C 23.683594 31.308594 23.6875 31.324219 23.6875 31.183594 L 23.6875 17.574219 C 23.691406 17.214844 23.496094 16.882813 23.183594 16.703125 C 22.871094 16.527344 22.488281 16.53125 22.175781 16.714844 C 22.097656 16.519531 21.988281 16.046875 21.988281 15.25 C 21.988281 14.875 22.460938 14.019531 23.058594 13.363281 C 23.65625 12.710938 24.261719 12.246094 24.261719 12.246094 C 24.605469 11.980469 24.742188 11.53125 24.601563 11.121094 C 24.457031 10.714844 24.070313 10.441406 23.640625 10.449219 Z M 20.332031 14.035156 C 20.179688 14.421875 19.988281 14.789063 19.988281 15.25 C 19.988281 16.207031 20.09375 16.910156 20.328125 17.480469 C 20.566406 18.050781 21.015625 18.511719 21.523438 18.679688 C 21.589844 18.703125 21.625 18.664063 21.6875 18.675781 L 21.6875 31.183594 C 21.6875 31.949219 22.121094 32.671875 22.707031 33.0625 C 23.296875 33.453125 23.992188 33.597656 24.730469 33.597656 C 25.738281 33.597656 26.566406 33.132813 27.28125 32.734375 C 27.996094 32.335938 28.546875 31.9375 28.546875 31.9375 C 28.808594 31.746094 28.964844 31.445313 28.964844 31.125 L 28.964844 19.730469 C 28.964844 19.1875 28.710938 18.789063 28.53125 18.347656 C 28.957031 18.566406 29.480469 18.449219 29.777344 18.070313 C 29.777344 18.070313 30.25 17.4375 31.527344 16.53125 C 32.265625 16.003906 33.347656 15.421875 34.628906 14.859375 C 34.550781 14.960938 34.503906 15.011719 34.429688 15.113281 C 33.988281 15.714844 33.570313 16.316406 33.25 16.871094 C 32.925781 17.425781 32.632813 17.839844 32.632813 18.570313 L 32.632813 31.011719 C 32.632813 31.363281 32.761719 31.746094 32.980469 32.015625 C 33.199219 32.28125 33.46875 32.429688 33.703125 32.519531 C 34.167969 32.699219 34.554688 32.691406 34.824219 32.691406 C 35.183594 32.691406 35.707031 32.445313 36.179688 32.269531 C 35.019531 33.683594 33.527344 35.167969 31.78125 36.40625 L 29.292969 34.277344 C 28.882813 33.925781 28.269531 33.960938 27.90625 34.359375 L 25.046875 37.46875 C 24.460938 37.421875 20.171875 36.878906 17.246094 34.269531 C 17.425781 34.160156 17.621094 34.125 17.765625 33.941406 C 18.058594 33.570313 18.1875 33.082031 18.1875 32.59375 L 18.1875 22.109375 C 18.1875 21.527344 18.046875 20.929688 17.628906 20.484375 C 17.214844 20.035156 16.605469 19.859375 16.058594 19.859375 C 16.054688 19.859375 16.054688 19.859375 16.054688 19.859375 C 15.257813 19.859375 14.28125 20.25 12.902344 21.46875 C 12.171875 22.109375 11.335938 23.039063 10.425781 24.25 C 11.160156 22.460938 12.320313 20.625 13.824219 18.945313 C 15.691406 16.859375 18 15.265625 20.332031 14.035156 Z"/></svg>